<svg width="369" height="363" viewBox="0 0 369 363" fill="none" xmlns="http://www.w3.org/2000/svg">
<path d="M53.9135 331.881C-17.9712 290.377 -17.9712 223.08 53.9135 181.608C125.798 140.136 242.351 140.104 314.26 181.608C386.168 223.112 386.144 290.409 314.26 331.881C242.375 373.353 125.806 373.393 53.9135 331.881Z" fill="#F5F5F5"/>
<path d="M111.447 333.885C142.643 333.885 167.931 319.286 167.931 301.278C167.931 283.269 142.643 268.671 111.447 268.671C80.2524 268.671 54.9639 283.269 54.9639 301.278C54.9639 319.286 80.2524 333.885 111.447 333.885Z" fill="#50CFAF"/>
<path d="M241.997 286.038C281.163 264.913 304.393 231.988 293.88 212.498C283.368 193.007 243.095 194.332 203.929 215.456C164.762 236.58 141.533 269.505 152.045 288.996C162.557 308.487 202.83 307.162 241.997 286.038Z" fill="#50CFAF"/>
<path d="M280.97 239.737C288.802 230.403 301.07 224.32 314.865 220.727C328.493 217.188 330.934 208.8 321.901 206.089C311.668 203.004 298.899 208.665 290.662 216.544C276.319 230.276 274.514 240.763 274.514 240.763L280.97 239.737Z" fill="#A483DF"/>
<path opacity="0.15" d="M280.97 239.737C288.802 230.403 301.07 224.32 314.865 220.727C328.493 217.188 330.934 208.8 321.901 206.089C311.668 203.004 298.899 208.665 290.662 216.544C276.319 230.276 274.514 240.763 274.514 240.763L280.97 239.737Z" fill="black"/>
<path d="M276.939 239.173C276.881 239.185 276.821 239.185 276.764 239.173C276.717 239.15 276.674 239.118 276.64 239.079C276.605 239.04 276.579 238.994 276.562 238.944C276.545 238.895 276.538 238.843 276.541 238.79C276.544 238.738 276.558 238.687 276.581 238.64C288.205 214.787 313.95 208.919 320.184 209.365C320.288 209.373 320.385 209.422 320.453 209.5C320.521 209.579 320.556 209.682 320.55 209.786C320.539 209.891 320.489 209.988 320.409 210.056C320.329 210.124 320.225 210.158 320.12 210.152C314.014 209.691 288.738 215.503 277.296 238.99C277.257 239.048 277.204 239.096 277.141 239.128C277.079 239.16 277.009 239.175 276.939 239.173Z" fill="white"/>
<path d="M274.514 242.218C274.514 242.602 274.616 242.978 274.81 243.309C275.003 243.641 275.281 243.915 275.614 244.104C275.948 244.293 276.326 244.39 276.709 244.386C277.093 244.381 277.468 244.275 277.797 244.079C285.08 239.841 295.703 237.495 312.893 242.393C322.037 244.993 326.537 243.252 328.461 239.531C330.608 235.396 326.076 231.397 320.907 229.513C303.312 223.08 287.434 227.469 274.514 240.302V242.218Z" fill="#A483DF"/>
<path d="M275.523 242.56C275.467 242.561 275.41 242.55 275.358 242.528C275.306 242.506 275.26 242.474 275.221 242.433C275.147 242.357 275.106 242.256 275.106 242.151C275.106 242.045 275.147 241.944 275.221 241.868C290.415 228.288 313.95 230.936 322.855 236.231C322.945 236.284 323.011 236.371 323.038 236.472C323.064 236.573 323.05 236.681 322.998 236.772C322.943 236.863 322.856 236.928 322.753 236.955C322.65 236.982 322.542 236.967 322.449 236.915C313.703 231.723 290.646 229.139 275.754 242.481C275.686 242.529 275.606 242.556 275.523 242.56Z" fill="white"/>
<path d="M104.514 273.879C97.8353 263.686 86.37 256.196 73.0919 251.004C59.9888 245.883 58.5496 237.273 67.8364 235.635C78.3634 233.782 90.3773 240.914 97.6286 249.708C110.255 265.037 110.803 275.684 110.803 275.684L104.514 273.879Z" fill="#A483DF"/>
<path opacity="0.15" d="M104.514 273.879C97.8353 263.686 86.37 256.196 73.0919 251.004C59.9888 245.883 58.5496 237.273 67.8364 235.635C78.3634 233.782 90.3773 240.914 97.6286 249.708C110.255 265.037 110.803 275.684 110.803 275.684L104.514 273.879Z" fill="black"/>
<path d="M108.552 273.815C108.61 273.826 108.669 273.826 108.727 273.815C108.826 273.779 108.908 273.706 108.954 273.611C109 273.516 109.007 273.406 108.974 273.306C100.228 248.253 75.3889 239.387 69.1235 239.117C69.0194 239.113 68.9177 239.15 68.8403 239.219C68.763 239.289 68.7162 239.387 68.7101 239.491C68.7077 239.597 68.746 239.699 68.817 239.778C68.8879 239.856 68.9863 239.904 69.0917 239.912C75.2139 240.167 99.6234 248.921 108.218 273.593C108.249 273.656 108.297 273.71 108.355 273.749C108.414 273.788 108.482 273.811 108.552 273.815Z" fill="white"/>
<path d="M110.859 275.199C110.796 275.764 110.589 276.303 110.258 276.765C109.926 277.227 109.481 277.595 108.966 277.835C108.45 278.075 107.882 278.178 107.315 278.134C106.748 278.09 106.203 277.9 105.73 277.584C98.9879 273.068 88.9458 270.134 72.4953 272.813C63.1132 274.316 58.8514 272.018 57.3885 268.13C55.7506 263.773 60.7279 260.346 66.0789 259.082C84.3104 254.773 99.5603 261.006 110.875 275.262L110.859 275.199Z" fill="#A483DF"/>
<path d="M109.603 277.337C109.658 277.345 109.715 277.341 109.768 277.324C109.822 277.308 109.871 277.28 109.913 277.242C109.986 277.166 110.027 277.065 110.027 276.96C110.027 276.854 109.986 276.753 109.913 276.678C96.3963 261.404 72.7422 261.253 63.2726 265.459C63.1756 265.502 63.0997 265.582 63.0617 265.681C63.0237 265.78 63.0266 265.89 63.0698 265.987C63.1131 266.084 63.1931 266.16 63.2922 266.198C63.3914 266.236 63.5016 266.233 63.5986 266.19C72.8773 262.064 96.0941 262.215 109.317 277.202C109.351 277.245 109.395 277.279 109.444 277.302C109.494 277.326 109.548 277.338 109.603 277.337Z" fill="white"/>
<path d="M288.103 92.215L287.975 92.1514L257.666 74.707L257.484 74.6196C243.323 67.4637 224.431 69.6184 204.109 82.7534C163.289 109.151 132.184 169.912 134.633 218.468C135.85 242.663 145.184 259.257 159.281 266.556L159.401 266.619L189.718 284.072L189.861 284.151C204.021 291.307 222.929 289.184 243.267 276.033C284.087 249.636 315.192 188.875 312.743 140.318C311.542 116.108 302.208 99.514 288.103 92.215Z" fill="#37474F"/>
<path d="M188.676 283.507L159.44 266.603L159.297 266.516C145.2 259.201 135.874 242.607 134.649 218.444C133.56 196.786 139.149 172.719 149.279 150.368L149.478 149.875L179.596 167.813C169.45 190.163 163.877 214.23 164.966 235.889C166.119 259.575 175.08 275.97 188.676 283.507Z" fill="#263238"/>
<path d="M243.282 276.017C284.102 249.62 315.206 188.859 312.757 140.302C310.309 91.7459 275.229 73.7927 234.409 100.19C193.588 126.587 162.476 187.348 164.925 235.897C167.374 284.445 202.462 302.415 243.282 276.017Z" fill="#455A64"/>
<path d="M277.854 88.4462L226.689 193.852L215.677 181.926C212.394 178.507 207.9 176.512 203.162 176.37C198.424 176.228 193.82 177.95 190.337 181.166C186.855 184.382 184.773 188.835 184.538 193.57C184.303 198.304 185.934 202.941 189.081 206.486L218.094 237.916C221.285 241.382 225.706 243.46 230.41 243.705C230.744 243.705 231.078 243.705 231.412 243.705C232.29 243.704 233.167 243.64 234.036 243.514C236.956 243.089 239.728 241.955 242.109 240.211C244.491 238.467 246.409 236.167 247.696 233.511L306.374 112.657C300.355 99.2357 290.337 90.919 277.854 88.4462Z" fill="#37474F"/>
<path d="M319.406 53.7324C319.088 53.5495 318.754 53.3746 318.42 53.2155C314.67 51.3984 310.352 51.143 306.414 52.5054C302.476 53.8678 299.239 56.7367 297.413 60.4827L232.311 194.584L228.606 190.608C227.536 189.44 226.292 188.445 224.916 187.658C222.976 186.545 214.723 181.767 213.388 180.995C210.132 179.112 206.308 178.458 202.612 179.153C198.915 179.848 195.59 181.845 193.241 184.783C190.891 187.72 189.673 191.403 189.807 195.162C189.941 198.921 191.419 202.507 193.971 205.27L222.984 236.692C224.072 237.872 225.335 238.878 226.729 239.673C228.622 240.747 236.843 245.517 238.195 246.297C240.064 247.379 242.137 248.065 244.283 248.311C246.43 248.556 248.604 248.357 250.67 247.725C252.736 247.093 254.649 246.042 256.291 244.638C257.932 243.233 259.267 241.505 260.211 239.562L337.232 80.9167C338.963 77.3411 339.279 73.243 338.116 69.4444C336.952 65.6458 334.395 62.4275 330.958 60.435L319.406 53.7324Z" fill="#A483DF"/>
<path opacity="0.15" d="M319.406 53.7324C319.088 53.5495 318.754 53.3746 318.42 53.2155C314.67 51.3984 310.352 51.143 306.414 52.5054C302.476 53.8678 299.239 56.7367 297.413 60.4827L232.311 194.584L228.606 190.608C227.536 189.44 226.292 188.445 224.916 187.658C222.976 186.545 214.723 181.767 213.388 180.995C210.132 179.112 206.308 178.458 202.612 179.153C198.915 179.848 195.59 181.845 193.241 184.783C190.891 187.72 189.673 191.403 189.807 195.162C189.941 198.921 191.419 202.507 193.971 205.27L222.984 236.692C224.072 237.872 225.335 238.878 226.729 239.673C228.622 240.747 236.843 245.517 238.195 246.297C240.064 247.379 242.137 248.065 244.283 248.311C246.43 248.556 248.604 248.357 250.67 247.725C252.736 247.093 254.649 246.042 256.291 244.638C257.932 243.233 259.267 241.505 260.211 239.562L337.232 80.9167C338.963 77.3411 339.279 73.243 338.116 69.4444C336.952 65.6458 334.395 62.4275 330.958 60.435L319.406 53.7324Z" fill="black"/>
<path opacity="0.15" d="M238.154 246.265C236.818 245.47 228.613 240.699 226.697 239.642C225.303 238.845 224.04 237.84 222.952 236.66L193.939 205.238C192.66 203.842 191.644 202.226 190.941 200.467L202.478 207.122C203.178 208.886 204.2 210.504 205.492 211.893L234.497 243.315C235.564 244.473 236.796 245.467 238.154 246.265Z" fill="black"/>
<path opacity="0.15" d="M312.598 62.3115C311.083 63.6716 309.846 65.3135 308.957 67.1457L241.994 205.079L232.31 194.584L297.412 60.4828C298.299 58.6473 299.539 57.0046 301.062 55.6486L312.598 62.3115Z" fill="black"/>
<path d="M329.963 59.8784C326.213 58.0655 321.897 57.8124 317.96 59.1744C314.023 60.5364 310.786 63.4025 308.957 67.1456L241.994 205.079L228.613 190.576C225.749 187.667 221.865 185.987 217.784 185.891C213.704 185.796 209.746 187.292 206.749 190.064C203.752 192.835 201.951 196.664 201.729 200.74C201.506 204.816 202.878 208.819 205.555 211.901L234.56 243.331C236.296 245.209 238.465 246.636 240.877 247.486C243.29 248.336 245.874 248.585 248.404 248.211C250.934 247.836 253.335 246.85 255.398 245.337C257.461 243.824 259.124 241.831 260.241 239.53L337.262 80.8848C339.077 77.1309 339.328 72.81 337.96 68.8713C336.591 64.9326 333.715 61.6981 329.963 59.8784Z" fill="#A483DF"/>
<path d="M110.326 75.383C104.26 75.383 100.109 76.9732 95.7999 83.0955C91.8244 88.7248 80.9793 107.489 80.9793 107.489C80.9793 107.489 73.0283 91.1737 72.2332 87.9217C71.4382 84.6698 71.4859 83.2227 72.2332 81.8074C73.3276 80.1346 74.0139 78.2282 74.2369 76.2418C74.547 72.3299 75.5011 68.9825 74.6265 68.8712C72.2014 68.736 72.106 71.8528 70.8339 73.6895C70.6723 73.8668 70.4712 74.0035 70.2469 74.0886C70.0226 74.1737 69.7814 74.2047 69.5429 74.1791C69.3044 74.1536 69.0753 74.0722 68.8741 73.9415C68.6729 73.8108 68.5053 73.6346 68.385 73.4271C67.8523 72.3378 68.1385 70.5489 67.8841 69.2608C67.953 68.544 68.0672 67.8323 68.226 67.13C69.1444 67.2952 70.0824 67.322 71.0088 67.2095C72.0583 68.8553 72.7739 69.547 74.2369 68.8792C74.4277 68.577 73.6088 66.4939 72.6467 64.9037C72.5022 64.6604 72.2682 64.4834 71.9947 64.4107C70.2308 63.9641 68.3901 63.9125 66.604 64.2597C66.4689 64.2735 66.3381 64.3144 66.2192 64.38C66.1004 64.4456 65.996 64.5345 65.9122 64.6413C65.241 65.6247 64.706 66.6946 64.322 67.8217C64.2187 68.1636 63.9006 68.1556 63.8211 67.8614C63.026 64.0211 63.026 58.5668 63.026 56.0145C63.026 54.0029 60.0921 53.6849 59.9888 56.5631C59.8144 60.425 59.8808 64.294 60.1875 68.1477C60.1875 68.4975 59.8377 68.6645 59.6946 68.2828C59.1857 66.9232 57.9374 62.8126 57.4127 55.7203C57.2695 53.8121 54.1846 53.502 54.2323 56.1815C54.3532 60.932 54.9714 65.6568 56.0769 70.2785C56.1723 70.6125 55.8622 70.9067 55.6317 70.525C54.1843 67.7358 53.0279 64.805 52.1809 61.779C51.521 59.4732 48.444 60.0615 49.0005 62.9318C49.9626 68.0761 51.4892 74.58 53.7711 79.2313C56.2041 84.2007 58.3032 86.6893 59.5117 90.5932C60.7203 94.4972 65.7214 116.609 71.0724 125.228C75.2626 131.986 80.057 131.358 85.2172 127.796C90.3773 124.234 108.816 98.5442 108.816 98.5442L110.326 75.383Z" fill="#9E6767"/>
<path d="M80.9795 107.481C80.9795 107.481 83.5636 111.862 83.9611 115.368C84.6179 111.964 83.9648 108.437 82.1324 105.493L80.9795 107.481Z" fill="#874C4C"/>
<path d="M111.614 75.383C108.529 75.0649 104.689 74.9616 100.411 77.6569C96.1333 80.3523 94.6386 84.1052 92.5634 87.3889C90.4882 90.6727 83.3164 102.305 83.3164 102.305C83.3164 102.305 85.9482 113.349 96.4116 115.623L112.083 94.3619L111.614 75.383Z" fill="#455A64"/>
<path d="M125.664 269.569C126.459 269.466 127.516 272.177 127.532 273.06C127.548 273.942 126.658 275.843 125.489 277.624C123.926 279.744 122.631 282.048 121.632 284.485C120.734 286.934 119.907 288.54 117.403 291.744C114.62 295.314 108.084 301.286 98.1613 298.694C95.7362 298.057 94.5277 297.294 93.6451 296.412C93.2579 296.02 92.9879 295.529 92.8656 294.992C92.7434 294.455 92.7738 293.895 92.9534 293.374L125.664 269.569Z" fill="#263238"/>
<path d="M106.168 266.468V266.556C106.054 267.298 106.075 268.055 106.231 268.79C106.504 270.98 106.31 273.202 105.662 275.311C105.013 277.42 103.926 279.368 102.471 281.027C101.088 282.469 99.5279 283.731 97.8271 284.779C92.8021 287.96 92.2615 290.13 92.9691 293.374C94.6547 297.151 106.048 299.449 112.6 293.828C115.427 291.633 117.588 288.696 118.842 285.344C119.792 282.943 120.897 280.606 122.149 278.347C123.413 275.962 125.815 273.274 125.886 270.818C125.926 269.466 124.59 266.953 123.294 264.886C122.101 262.986 120.869 261.181 119.796 261.388L120.098 262.461C119.199 263.391 117.903 263.741 117.124 264.846C116.154 266.19 116.186 268.027 115.59 269.537C115.57 269.615 115.534 269.688 115.483 269.749C115.432 269.811 115.368 269.861 115.295 269.895C115.211 269.909 115.125 269.896 115.049 269.857C114.973 269.819 114.912 269.757 114.874 269.681C114.809 269.525 114.779 269.356 114.787 269.188L114.715 266.874C114.751 266.429 114.633 265.986 114.381 265.618C113.761 264.918 112.234 264.997 111.384 264.966C110.238 264.975 109.095 265.044 107.957 265.172C107.562 265.133 107.167 265.238 106.844 265.467C106.519 265.721 106.282 266.072 106.168 266.468Z" fill="#37474F"/>
<path d="M89.3277 220.242C91.9753 228.948 104.355 259.09 105.094 260.903L107.559 266.882C109.182 267.416 110.921 267.49 112.584 267.097C112.847 269.983 113.284 274.507 113.451 276.789C113.514 279.436 113.745 282.712 113.173 285.328C112.688 287.554 112.123 289.892 111.702 292.126C111.519 293.112 111.336 294.106 111.185 295.1C110.928 296.141 111.015 297.237 111.431 298.225C111.685 298.656 112.02 299.034 112.417 299.338C114.183 300.725 116.415 301.38 118.651 301.166C119.833 301.11 120.977 300.73 121.958 300.069C123.883 298.694 124.558 296.3 125.536 294.265C126.602 292.063 126.26 291.816 126.331 289.455C126.395 287.801 126.856 283.603 127.516 279.214C128.176 274.825 131.022 259.4 132.39 244.031C132.947 237.204 132.947 230.344 132.39 223.517C143.251 194.011 148.085 176.464 149.508 166.668C150.948 156.713 150.256 153.151 150.073 147.435L97.2547 148.707C93.0248 176.01 85.7736 208.57 89.3277 220.242Z" fill="#9E6767"/>
<path d="M88.5009 198.456C89.5902 188.422 97.0959 149.852 97.0959 149.852H150.304C150.304 149.852 150.646 157.254 150.55 160.657C150.455 164.06 149.358 170.27 147.457 178.149C145.557 186.029 138.512 208.267 137.121 211.543C135.73 214.819 133.146 224.32 133.146 224.32C134.449 242.162 131.054 258.176 128.51 279.46C128.51 279.46 127.771 282.331 120.233 281.766C112.902 281.209 111.424 278.506 111.424 278.506L110.939 260.147C110.939 260.147 106.963 261.372 104.578 260.815C104.578 260.815 88.8269 221.927 88.0636 219.59C87.3003 217.252 87.4116 208.49 88.5009 198.456Z" fill="#A483DF"/>
<path opacity="0.45" d="M88.5009 198.456C89.5902 188.422 97.0959 149.852 97.0959 149.852H150.304C150.304 149.852 150.646 157.254 150.55 160.657C150.455 164.06 149.358 170.27 147.457 178.149C145.557 186.029 138.512 208.267 137.121 211.543C135.73 214.819 133.146 224.32 133.146 224.32C134.449 242.162 131.054 258.176 128.51 279.46C128.51 279.46 127.771 282.331 120.233 281.766C112.902 281.209 111.424 278.506 111.424 278.506L110.939 260.147C110.939 260.147 106.963 261.372 104.578 260.815C104.578 260.815 88.8269 221.927 88.0636 219.59C87.3003 217.252 87.4116 208.49 88.5009 198.456Z" fill="black"/>
<path opacity="0.2" d="M111.074 174.992C103.536 168.202 101.858 162.796 101.858 162.796C105.648 167.065 110.135 170.66 115.129 173.426C115.129 173.426 107.973 211.209 108.497 218.977C109.022 226.745 110.938 260.147 110.938 260.147C110.938 260.465 105.866 224.821 105.715 221.983C105.373 214.469 111.074 174.992 111.074 174.992Z" fill="black"/>
<path d="M127.635 298.376C128.374 298.59 128.279 300.801 127.945 301.627C127.118 303.07 125.946 304.286 124.534 305.166C122.465 306.575 120.74 308.43 119.485 310.596C117.444 313.719 114.744 316.357 111.574 318.324C107.353 320.72 102.377 321.416 97.6599 320.272C92.6667 318.857 92.2056 317.633 92.2453 315.748L127.635 298.376Z" fill="#263238"/>
<path d="M112.21 286.815C110.898 293.176 108.616 297.851 103.329 301.779C99.115 304.911 96.0619 306.501 92.6986 309.292C91.2754 310.485 91.1561 313.021 92.2454 315.756C94.5194 317.577 97.7475 318.627 102.081 318.619C106.931 318.619 108.791 317.752 111.574 315.852C112.941 314.917 114.214 313.852 115.375 312.671C117.704 310.334 119.35 307.448 121.004 305.595C122.658 303.742 126.323 301.85 127.365 299.616C127.937 298.391 127.699 295.553 127.317 293.136C126.967 290.918 127.643 287.022 126.578 286.775L126.427 288.365C126.339 288.723 126.116 288.906 125.369 289.16C124.697 289.306 124.004 289.325 123.326 289.216C123.085 289.129 122.822 289.119 122.575 289.189C122.328 289.259 122.11 289.405 121.95 289.606C121.235 290.448 121.044 291.641 120.121 292.341C120.062 292.393 119.991 292.431 119.915 292.452C119.879 292.472 119.839 292.482 119.798 292.48C119.758 292.479 119.718 292.466 119.684 292.444C119.66 292.406 119.643 292.362 119.636 292.317C119.63 292.272 119.632 292.226 119.644 292.182L119.907 289.796C119.938 289.559 119.938 289.318 119.907 289.081C119.857 288.859 119.76 288.651 119.623 288.47C119.486 288.289 119.311 288.139 119.112 288.031C118.442 287.642 117.723 287.345 116.973 287.149C116.193 286.937 115.394 286.801 114.588 286.743C113.796 286.642 112.994 286.666 112.21 286.815Z" fill="#455A64"/>
<path d="M145.502 77.665C145.502 77.665 147.688 80.6705 149.477 86.8643C151.655 97.0365 152.774 107.407 152.816 117.809C152.816 131.859 150.924 154.622 150.924 154.622C134.617 162.796 108.315 157.962 96.7383 149.987C97.2074 147.459 97.6049 134.164 98.5193 125.395C99.1315 110.351 99.6404 102.472 99.7437 95.7773C99.9584 82.4038 106.613 75.4944 111.67 75.391L124.439 75.5898L145.502 77.665Z" fill="#A483DF"/>
<path d="M149.525 150.496C147.1 152.492 142.369 156.324 141.47 158.256C140.469 160.466 139.88 163.822 139.204 165.078C138.529 166.334 139.546 166.97 140.946 166.517C142.345 166.064 143.18 164.879 144.261 161.985C145.343 159.091 148.348 156.825 148.348 156.825L149.525 150.496Z" fill="#874C4C"/>
<path d="M140.667 176.519C141.248 177.64 142.6 177.648 143.848 177.744C145.37 177.918 146.911 177.744 148.356 177.235C150.092 176.733 151.615 175.674 152.689 174.221C153.914 172.456 154.232 170.246 154.931 168.218C156.394 163.965 160.752 160.896 161.467 156.387C161.761 154.527 161.761 152.332 162.262 151.18C162.572 150.496 169.736 138.164 172.296 132.821C174.745 127.685 176.582 125.267 174.356 119.097C172.129 112.928 164.552 91.2135 159.185 83.668C156.148 79.3904 151.322 78.166 145.47 77.665C141.017 89.2575 146.193 101.24 146.193 101.24L158.008 123.963C158.008 123.963 153.429 139.611 150.566 148.309C149.771 150.695 148.181 152.221 146.36 154.901C145.565 156.061 143.768 158.081 143.132 159.345C142.337 160.935 142.337 161.985 141.94 164.235C141.319 167.821 140.357 175.987 140.667 176.519Z" fill="#9E6767"/>
<path d="M144.873 77.6014C147.95 77.7206 152.371 78.2454 155.01 79.5812C157.65 80.9169 159.487 82.5628 162.524 88.6532C165.561 94.7436 170.006 106.575 170.006 106.575C170.006 106.575 168.535 115.504 154.414 117.817L144.873 100.222C144.873 100.222 140.619 89.2575 144.873 77.6014Z" fill="#455A64"/>
<path d="M108.187 49.1846C108.604 49.939 108.966 50.723 109.269 51.5301C109.739 52.5845 110.34 53.5755 111.058 54.4799C112.886 56.5869 115.454 58.1294 117.8 59.6242C119.215 60.5306 120.837 61.3814 122.571 61.1349C124.304 60.8884 126.236 61.2621 128.025 61.4211L134.282 61.9856L133.932 68.5611C133.932 68.5611 134.728 66.8198 135.769 64.7367C136.676 62.9477 140.476 53.8757 140.492 53.8359C142.376 49.3436 144.611 43.3486 142.36 38.6257C141.849 37.4627 140.995 36.4835 139.912 35.819C140.13 35.093 140.2 34.3306 140.118 33.5769C139.993 32.5068 139.63 31.4785 139.054 30.5676C138.479 29.6567 137.707 28.8863 136.795 28.3133C135.014 27.1099 133.007 26.282 130.895 25.8804C128.095 25.2362 125.229 24.9187 122.356 24.9342C119.54 25.0201 116.737 25.3419 113.976 25.8963C112.435 26.1808 110.874 26.343 109.308 26.3813C108.634 26.4255 107.956 26.3935 107.289 26.2858C106.459 26.0379 105.644 25.7433 104.848 25.4033C104.779 25.3742 104.704 25.3592 104.629 25.3592C104.554 25.3592 104.48 25.3742 104.411 25.4033C104.347 25.4452 104.294 25.5004 104.254 25.5649C104.215 25.6294 104.189 25.7017 104.18 25.777C103.973 26.7696 103.982 27.7951 104.205 28.784C104.429 29.773 104.862 30.7025 105.476 31.5096C105.118 31.4608 104.77 31.359 104.442 31.2075C104.07 31.0353 103.712 30.836 103.369 30.6112C102.785 30.2199 102.274 29.7303 101.858 29.1641C101.801 29.0754 101.713 29.0104 101.612 28.9812C101.453 28.9812 101.326 29.0925 101.23 29.2198C100.801 29.8579 100.509 30.5781 100.372 31.3349C100.235 32.0917 100.257 32.8686 100.435 33.6166C100.786 35.1181 101.495 36.5122 102.502 37.6796C102.011 38.4735 101.727 39.3782 101.677 40.3105C101.627 41.2428 101.812 42.1728 102.216 43.0147C102.57 43.7614 103.045 44.4439 103.623 45.0342C104.339 45.7657 105.214 46.362 105.937 47.0458C106.767 47.67 107.522 48.3876 108.187 49.1846Z" fill="#37474F"/>
<path d="M127.246 38.2281C127.222 39.4155 127.375 40.5998 127.699 41.7424C128.076 42.7462 128.683 43.6475 129.472 44.3742C130.364 45.131 131.188 45.9636 131.937 46.8628C132.744 48.2626 133.218 49.8299 133.32 51.4426C133.325 51.9176 133.436 52.3856 133.645 52.8121C133.854 53.2386 134.156 53.6129 134.529 53.9074C136.23 54.9649 137.248 52.9215 138.154 51.9197C139.323 50.8383 142.798 49.5344 144.404 53.2077C146.065 57.0242 142.996 62.081 140.206 62.8602C135.395 64.2039 134.346 60.9281 134.346 60.9281L133.423 78.1022C130.712 83.2464 124.335 84.8843 120.145 84.0654C116.528 83.3577 114.54 80.8214 117.943 77.148L118.126 71.9163C118.126 71.9163 113.785 72.4331 111.693 72.0356C108.203 71.3836 106.478 68.4179 105.531 64.5935C104.029 58.4474 103.337 51.9833 105.205 38.1407C106.056 37.6715 109.499 40.351 114.747 40.7088C119.06 41.0128 123.375 40.1563 127.246 38.2281Z" fill="#9E6767"/>
<path d="M118.095 71.9005C118.095 71.9005 125.966 70.5806 128.749 69.213C130.382 68.4265 131.74 67.1657 132.645 65.5953C132.181 67.1812 131.402 68.6575 130.355 69.9366C128.272 72.4252 118.023 73.9836 118.023 73.9836L118.095 71.9005Z" fill="#874C4C"/>
<path d="M122.188 44.3743L125.854 45.4954C125.994 44.9947 125.935 44.4592 125.689 44.0011C125.443 43.5431 125.029 43.1981 124.534 43.0386C124.292 42.9678 124.039 42.9463 123.789 42.9756C123.538 43.0048 123.297 43.0841 123.078 43.2088C122.859 43.3334 122.667 43.5008 122.515 43.7011C122.362 43.9013 122.251 44.1303 122.188 44.3743Z" fill="#263238"/>
<path d="M120.916 61.7392L115.518 63.568C115.623 63.9288 115.799 64.2649 116.037 64.5562C116.274 64.8475 116.568 65.0882 116.9 65.2639C117.232 65.4397 117.596 65.5469 117.971 65.5793C118.345 65.6117 118.722 65.5685 119.08 65.4523C119.806 65.1904 120.403 64.6576 120.745 63.9655C121.088 63.2733 121.149 62.4755 120.916 61.7392Z" fill="#874C4C"/>
<path d="M120.48 63.0591C119.776 63.0596 119.091 63.2941 118.534 63.7259C117.977 64.1576 117.579 64.7621 117.403 65.4444C117.948 65.6234 118.536 65.6234 119.081 65.4444C119.584 65.2665 120.029 64.9548 120.368 64.5429C120.707 64.131 120.927 63.6345 121.005 63.1068C120.832 63.0752 120.656 63.0592 120.48 63.0591Z" fill="#F28F8F"/>
<path d="M105.826 44.9547L109.555 44.4697C109.527 44.2283 109.451 43.995 109.331 43.7836C109.211 43.5721 109.05 43.3868 108.857 43.2386C108.664 43.0904 108.444 42.9823 108.209 42.9206C107.974 42.8589 107.729 42.845 107.488 42.8795C106.996 42.9433 106.549 43.1951 106.239 43.5821C105.929 43.969 105.781 44.4611 105.826 44.9547Z" fill="#263238"/>
<path d="M128.749 46.5449L141.049 50.735C140.36 50.743 139.682 50.9091 139.067 51.2207C138.452 51.5322 137.917 51.9809 137.503 52.5319L128.797 49.2243L128.749 46.5449Z" fill="#263238"/>
<path d="M107.663 51.3473C107.649 51.5452 107.675 51.7439 107.739 51.9316C107.803 52.1194 107.903 52.2925 108.035 52.4407C108.167 52.5889 108.327 52.7092 108.507 52.7945C108.686 52.8798 108.88 52.9284 109.078 52.9375C109.276 52.9396 109.471 52.9028 109.654 52.8292C109.838 52.7556 110.004 52.6467 110.145 52.5086C110.286 52.3705 110.399 52.206 110.476 52.0245C110.554 51.843 110.595 51.648 110.597 51.4507C110.611 51.2528 110.585 51.0541 110.521 50.8663C110.457 50.6785 110.356 50.5054 110.224 50.3573C110.092 50.2091 109.932 50.0888 109.753 50.0034C109.574 49.9181 109.38 49.8695 109.182 49.8605C108.984 49.8584 108.788 49.8952 108.605 49.9687C108.422 50.0423 108.255 50.1513 108.114 50.2893C107.973 50.4274 107.861 50.5919 107.783 50.7734C107.706 50.9549 107.665 51.1499 107.663 51.3473Z" fill="#263238"/>
<path d="M121.712 51.3473C121.714 51.6358 121.8 51.9174 121.961 52.1571C122.121 52.3968 122.349 52.584 122.615 52.6954C122.881 52.8068 123.174 52.8375 123.458 52.7836C123.741 52.7297 124.002 52.5936 124.209 52.3923C124.416 52.1911 124.559 51.9334 124.62 51.6515C124.681 51.3696 124.659 51.0759 124.554 50.8068C124.45 50.5378 124.269 50.3054 124.034 50.1386C123.798 49.9717 123.519 49.8778 123.231 49.8684C122.833 49.8641 122.451 50.0173 122.166 50.2944C121.881 50.5716 121.718 50.9501 121.712 51.3473Z" fill="#263238"/>
<path d="M100.403 47.4353C100.493 48.0784 100.77 48.6809 101.198 49.1686C101.346 49.35 101.452 49.5618 101.508 49.7888C101.795 50.9735 102.041 53.2157 102.606 54.4719C102.989 55.4845 103.682 56.3505 104.585 56.9471C105.488 57.5437 106.557 57.8405 107.639 57.7954C108.215 57.8171 108.791 57.769 109.356 57.6523H109.483C109.973 57.5369 110.445 57.3522 110.883 57.1037L110.962 57.048L111.081 56.9765L111.232 56.8731L111.368 56.7618L111.519 56.6425C111.572 56.6065 111.62 56.5638 111.662 56.5153C111.758 56.4286 111.848 56.3356 111.932 56.237C112.401 55.7121 112.78 55.113 113.053 54.464C113.785 52.8261 113.594 50.5362 114.787 50.2659H114.93H115.089C116.679 50.2659 116.536 52.7863 117.474 54.5673C118.412 56.3484 119.859 58.0896 123.413 58.1373H123.867C123.988 58.1455 124.11 58.1455 124.232 58.1373C124.519 58.1199 124.803 58.08 125.083 58.0181L125.345 57.9545C125.431 57.9353 125.516 57.9114 125.6 57.8829L125.767 57.8352C126.1 57.7179 126.42 57.566 126.721 57.382C126.832 57.3178 126.938 57.2461 127.039 57.1673C127.236 57.0229 127.42 56.8605 127.588 56.6823C128.041 56.1993 128.404 55.6392 128.661 55.0285C129.21 53.7961 129.353 51.5539 129.623 50.3851C129.67 50.145 129.762 49.9159 129.893 49.7093C130.318 49.2438 130.595 48.6626 130.688 48.0396C130.707 47.7204 130.621 47.4037 130.443 47.138C130.265 46.8724 130.005 46.6724 129.703 46.5687L128.836 46.4574C126.053 46.1155 122.427 45.9724 120.257 46.5607C117.538 47.3002 116.591 48.1509 115.073 48.1509C113.554 48.1509 112.735 47.2127 110.151 46.3699C108.1 45.702 104.705 45.7259 102.113 45.9644L101.318 46.0439C101.035 46.1451 100.793 46.3357 100.628 46.5867C100.463 46.8377 100.384 47.1356 100.403 47.4353ZM118.309 49.1448C118.523 48.8785 118.795 48.6638 119.104 48.5167C119.146 48.4858 119.192 48.4591 119.239 48.4372H119.319C119.438 48.3735 119.565 48.3099 119.7 48.2543L120.058 48.1112C120.438 47.9669 120.825 47.8448 121.219 47.7454L121.68 47.6341C122.078 47.5546 122.475 47.491 122.873 47.4512C122.968 47.4437 123.064 47.4437 123.159 47.4512C125.775 47.2366 127.413 47.8567 128.009 48.3895C128.605 48.9222 128.343 51.3711 128.096 52.6035V52.6909C128.096 52.6909 128.096 52.7545 128.096 52.7863C128.096 52.9374 128.033 53.1044 127.985 53.2872C127.937 53.4701 127.929 53.486 127.898 53.5894C127.842 53.7563 127.786 53.9233 127.723 54.0982C127.7 54.158 127.673 54.2164 127.643 54.2732C127.632 54.3084 127.619 54.3429 127.603 54.3765L127.548 54.4958L127.476 54.6389L127.389 54.8059C127.389 54.8615 127.317 54.9172 127.277 54.9728C127.245 55.034 127.208 55.0925 127.166 55.1478C126.756 55.7277 126.203 56.192 125.561 56.4956C124.919 56.7993 124.209 56.9321 123.501 56.8811C122.789 56.9199 122.077 56.8083 121.411 56.5535C120.745 56.2987 120.141 55.9064 119.637 55.4022C119.009 54.6978 118.573 53.8433 118.372 52.9215C117.983 51.5301 117.8 49.8922 118.309 49.1448ZM102.9 47.8647C103.089 47.6966 103.304 47.5598 103.536 47.4592H103.584L103.87 47.3479L104.045 47.2922H104.188H104.283H104.323H104.466C104.649 47.2922 104.848 47.2207 105.07 47.1889H105.396H106.454C106.836 47.1889 107.249 47.2445 107.662 47.3002C109.531 47.5705 111.487 48.4372 111.996 49.2084C112.505 49.9796 112.393 51.5937 112.147 52.9374C112.093 53.251 112.014 53.5595 111.908 53.8597C111.906 53.8835 111.906 53.9075 111.908 53.9313C111.908 53.9313 111.908 53.9869 111.908 54.0187V54.0823L111.861 54.1936L111.765 54.4163C111.765 54.4799 111.702 54.5514 111.662 54.615C111.663 54.6362 111.663 54.6575 111.662 54.6787L111.582 54.8138L111.511 54.9251C111.087 55.5501 110.499 56.0467 109.812 56.3608C109.125 56.6748 108.365 56.7943 107.615 56.7062C106.936 56.6916 106.268 56.5288 105.659 56.2291C103.798 55.2909 103.321 53.1998 103.107 52.2536C102.709 50.8304 102.343 48.3894 102.9 47.8567V47.8647Z" fill="#263238"/>
<path d="M115.518 50.3057L115.24 60.5306L109.539 58.8768L114.858 50.2182C115.082 50.1968 115.308 50.2267 115.518 50.3057Z" fill="#874C4C"/>
<path d="M195.235 51.6017C211.504 51.6017 224.693 40.0503 224.693 25.8009C224.693 11.5514 211.504 0 195.235 0C178.965 0 165.776 11.5514 165.776 25.8009C165.776 40.0503 178.965 51.6017 195.235 51.6017Z" fill="#A483DF"/>
<path d="M171.724 40.7249C171.557 44.1835 168.631 50.3694 163.344 52.6513C163.273 52.6813 163.214 52.7328 163.174 52.7985C163.134 52.8642 163.116 52.9407 163.122 53.0172C163.128 53.0937 163.159 53.1664 163.208 53.2249C163.258 53.2833 163.325 53.3247 163.399 53.343C166.422 54.0129 169.574 53.7859 172.47 52.6899C175.365 51.5939 177.878 49.6765 179.699 47.1731L171.724 40.7249Z" fill="#A483DF"/>
<path d="M175.262 23.7575C175.329 22.6267 175.598 21.5171 176.057 20.4817C176.49 19.4687 177.136 18.5603 177.95 17.8181C178.81 17.0311 179.814 16.4182 180.908 16.0133C183.529 15.1227 186.372 15.1227 188.994 16.0133C190.097 16.4164 191.113 17.0292 191.983 17.8181C192.794 18.5756 193.434 19.4972 193.86 20.5215C194.319 21.5569 194.588 22.6665 194.655 23.7973C194.695 24.6878 194.71 25.618 194.71 26.5881C194.71 27.5581 194.71 28.4724 194.655 29.3152C194.588 30.446 194.319 31.5556 193.86 32.591C193.422 33.606 192.778 34.5186 191.967 35.2705C191.102 36.067 190.086 36.6808 188.978 37.0754C186.352 37.9445 183.517 37.9445 180.892 37.0754C179.788 36.6815 178.777 36.0674 177.918 35.2705C177.105 34.5209 176.46 33.6078 176.026 32.591C175.566 31.5556 175.297 30.446 175.231 29.3152C175.191 28.4724 175.167 27.5581 175.167 26.5881C175.167 25.618 175.223 24.648 175.262 23.7575ZM188.859 29.1244C188.859 28.7507 188.898 28.3293 188.922 27.8841C188.946 27.4388 188.922 26.9618 188.922 26.4847C188.922 26.0076 188.922 25.5465 188.922 25.1012C188.922 24.656 188.874 24.3061 188.859 23.9086C188.824 23.4201 188.714 22.94 188.533 22.4854C188.361 22.0605 188.107 21.674 187.785 21.3484C187.445 21.0152 187.039 20.7578 186.593 20.593C185.508 20.2223 184.33 20.2223 183.245 20.593C182.797 20.7596 182.389 21.0167 182.045 21.3484C181.725 21.6743 181.473 22.0609 181.305 22.4854C181.123 22.94 181.013 23.4201 180.979 23.9086C180.93 24.3043 180.904 24.7025 180.9 25.1012C180.9 25.5465 180.9 26.0076 180.9 26.4847C180.9 26.9618 180.9 27.4229 180.9 27.8841C180.904 28.2986 180.93 28.7127 180.979 29.1244C181.027 30.0801 181.404 30.99 182.045 31.7005C182.426 32.0609 182.878 32.3376 183.372 32.5129C183.866 32.6882 184.392 32.7581 184.915 32.7182C185.436 32.7599 185.959 32.6907 186.451 32.5153C186.943 32.3398 187.392 32.0622 187.769 31.7005C188.405 30.9842 188.787 30.0792 188.859 29.1244Z" fill="#FAFAFA"/>
<path d="M216.687 36.3518C216.753 36.4531 216.784 36.5732 216.775 36.6937C216.776 36.7826 216.759 36.8708 216.724 36.9528C216.69 37.0348 216.64 37.109 216.576 37.1708C216.514 37.2358 216.44 37.2876 216.358 37.3231C216.276 37.3586 216.188 37.3772 216.099 37.3775H211.121C210.869 37.3868 210.62 37.3203 210.406 37.1867C210.199 37.0359 210.012 36.8596 209.849 36.6619L203.966 29.2675V36.5268C203.962 36.7411 203.879 36.9465 203.732 37.1025C203.584 37.2584 203.384 37.3537 203.171 37.3696H199.1C198.989 37.3703 198.88 37.3481 198.779 37.3043C198.677 37.2605 198.586 37.1961 198.511 37.1151C198.432 37.0394 198.369 36.948 198.326 36.8468C198.284 36.7455 198.263 36.6365 198.265 36.5268V16.4983C198.263 16.3885 198.284 16.2796 198.326 16.1783C198.369 16.077 198.432 15.9857 198.511 15.9099C198.586 15.829 198.677 15.7646 198.779 15.7208C198.88 15.677 198.989 15.6548 199.1 15.6555H203.171C203.384 15.6714 203.584 15.7666 203.732 15.9226C203.879 16.0786 203.962 16.2839 203.966 16.4983V23.0419L209.428 16.3393C209.553 16.1895 209.686 16.0462 209.825 15.9099C210.062 15.7177 210.365 15.6264 210.668 15.6555H215.502C215.593 15.6548 215.683 15.6728 215.766 15.7083C215.85 15.7439 215.925 15.7963 215.987 15.8622C216.051 15.924 216.102 15.9982 216.136 16.0802C216.17 16.1623 216.187 16.2504 216.186 16.3393C216.194 16.4608 216.161 16.5815 216.091 16.6812L208.458 26.0872L216.687 36.3518Z" fill="#FAFAFA"/>
<path d="M271.246 50.1943L266.786 51.5381L263.565 40.7804L268.01 39.4447L271.246 50.1943Z" fill="#50CFAF"/>
<path d="M285.168 40.6452C285.205 41.0816 285.103 41.5185 284.876 41.8929C284.648 42.2673 284.308 42.5598 283.904 42.7284C284.193 43.0572 284.408 43.4452 284.532 43.8654C284.786 44.6605 284.111 45.8134 282.767 46.2507L272.566 49.3197L269.568 39.3254C269.568 39.3254 271.294 34.9126 271.381 34.2447C271.469 33.5768 270.451 31.1279 270.308 30.6668C270.165 30.2056 271.818 29.6014 273.122 30.1261C273.426 30.261 273.697 30.4588 273.918 30.7065C274.387 31.206 274.78 31.7712 275.086 32.3842C275.519 33.2579 275.732 34.2241 275.707 35.1988L281.884 33.3145C282.311 33.1602 282.778 33.1602 283.204 33.3145C283.483 33.4247 283.729 33.6053 283.918 33.8386C284.107 34.072 284.232 34.3501 284.282 34.6461C284.331 34.9421 284.304 35.2459 284.201 35.5281C284.099 35.8102 283.925 36.0611 283.697 36.2563C284.065 36.2297 284.431 36.3272 284.737 36.5334C285.042 36.7396 285.27 37.0424 285.383 37.3933C285.477 37.8013 285.427 38.2293 285.242 38.6047C285.056 38.9801 284.746 39.2797 284.365 39.4526C284.777 39.7308 285.065 40.1585 285.168 40.6452Z" fill="#50CFAF"/>
<path d="M335.154 161.738L329.438 160.363L332.769 146.576L338.486 147.951L335.154 161.738Z" fill="#50CFAF"/>
<path d="M356.439 160.188C356.202 160.687 355.812 161.099 355.326 161.363C354.841 161.627 354.284 161.731 353.736 161.659C353.839 162.201 353.825 162.76 353.696 163.297C353.441 164.37 351.986 165.157 350.269 164.736L337.182 161.556L340.267 148.747C340.267 148.747 344.966 145.033 345.482 144.358C345.999 143.682 346.445 140.382 346.588 139.77C346.731 139.158 348.917 139.571 350.007 140.978C350.271 141.32 350.456 141.717 350.547 142.139C350.74 142.981 350.81 143.846 350.754 144.707C350.668 145.938 350.286 147.13 349.641 148.182L357.544 150.09C358.105 150.209 358.606 150.522 358.959 150.973C359.155 151.23 359.294 151.527 359.367 151.842C359.439 152.157 359.444 152.484 359.381 152.801C359.275 153.219 359.054 153.6 358.744 153.899C358.433 154.198 358.045 154.405 357.624 154.495C358.042 154.7 358.379 155.039 358.581 155.459C358.783 155.879 358.838 156.354 358.737 156.809C358.576 157.311 358.247 157.743 357.805 158.033C357.364 158.322 356.837 158.451 356.312 158.399C356.585 158.956 356.631 159.598 356.439 160.188Z" fill="#50CFAF"/>
<path d="M46.3916 153.493L52.6331 155.37L57.1492 140.31L50.9157 138.434L46.3916 153.493Z" fill="#50CFAF"/>
<path d="M26.8887 140.112C26.8367 140.723 26.9804 141.335 27.2991 141.86C27.6178 142.385 28.095 142.794 28.6618 143.03C28.2611 143.492 27.963 144.034 27.7872 144.62C27.4294 145.789 28.3835 147.355 30.252 147.912L44.5637 152.213L48.7459 138.195C48.7459 138.195 46.3209 132.01 46.2016 131.04C46.0824 130.07 47.5135 126.682 47.7043 126.031C47.8634 125.506 45.5894 124.544 43.7289 125.283C43.2865 125.456 42.8895 125.728 42.568 126.078C41.9074 126.788 41.3554 127.592 40.9301 128.464C40.3209 129.698 40.0208 131.063 40.0555 132.439L31.4685 129.847C30.863 129.648 30.2064 129.67 29.6159 129.911C29.2246 130.065 28.8799 130.317 28.6154 130.644C28.3509 130.971 28.1756 131.361 28.1068 131.776C28.0379 132.191 28.0777 132.617 28.2224 133.011C28.367 133.406 28.6116 133.757 28.9321 134.029C28.4132 133.985 27.8945 134.118 27.4611 134.407C27.0277 134.696 26.7053 135.123 26.5469 135.619C26.4147 136.192 26.4841 136.792 26.7434 137.32C27.0027 137.847 27.436 138.269 27.9701 138.514C27.4253 138.895 27.0403 139.464 26.8887 140.112Z" fill="#50CFAF"/>
</svg>
