<svg width="19" height="29" viewBox="0 0 19 29" fill="none" xmlns="http://www.w3.org/2000/svg">
<path d="M18.1242 9.0195C17.6749 4.49247 14.5647 0 9.08736 0C3.61 0 0.447991 4.49247 0.0678593 9.0195C-0.62329 15.931 4.07653 22.3068 9.08736 28.0261C14.1155 22.3068 18.8326 15.9828 18.1242 9.0195ZM9.08736 14.0303C8.11146 14.0269 7.15844 13.7346 6.34843 13.1903C5.53842 12.646 4.9077 11.874 4.53582 10.9718C4.16394 10.0695 4.06755 9.07731 4.25877 8.12032C4.45 7.16334 4.92029 6.28439 5.61036 5.59432C6.30043 4.90425 7.17938 4.43395 8.13636 4.24272C9.09335 4.05149 10.0855 4.14791 10.9878 4.51979C11.89 4.89168 12.662 5.52238 13.2063 6.33239C13.7507 7.1424 14.0429 8.09543 14.0463 9.07133C14.0486 9.7232 13.9219 10.3691 13.6735 10.9718C13.4251 11.5744 13.0599 12.122 12.599 12.583C12.1381 13.0439 11.5904 13.4091 10.9878 13.6575C10.3851 13.9059 9.73922 14.0326 9.08736 14.0303Z" fill="#9470D5"/>
</svg>
