<svg width="40" height="40" viewBox="0 0 40 40" fill="none" xmlns="http://www.w3.org/2000/svg">
<path d="M13.2749 38.65C13.1234 38.5867 12.9839 38.4979 12.8624 38.3875C12.7452 38.2713 12.6522 38.133 12.5888 37.9807C12.5253 37.8284 12.4926 37.665 12.4926 37.5C12.4926 37.335 12.5253 37.1716 12.5888 37.0193C12.6522 36.867 12.7452 36.7287 12.8624 36.6125C12.9839 36.5021 13.1234 36.4133 13.2749 36.35C13.4231 36.2796 13.5859 36.2453 13.7499 36.25C14.0814 36.25 14.3994 36.3817 14.6338 36.6161C14.8682 36.8505 14.9999 37.1685 14.9999 37.5C14.9999 37.8315 14.8682 38.1495 14.6338 38.3839C14.3994 38.6183 14.0814 38.75 13.7499 38.75C13.5865 38.748 13.4252 38.7141 13.2749 38.65ZM15.7124 32.975L18.6624 29.225C18.8679 28.9648 19.1684 28.7968 19.4978 28.7581C19.8272 28.7195 20.1584 28.8132 20.4186 29.0187C20.6789 29.2243 20.8468 29.5248 20.8855 29.8542C20.9242 30.1835 20.8304 30.5148 20.6249 30.775L17.6749 34.525C17.4693 34.7852 17.1688 34.9532 16.8395 34.9919C16.5101 35.0305 16.1789 34.9368 15.9186 34.7312C15.6584 34.5257 15.4905 34.2252 15.4518 33.8958C15.4131 33.5665 15.5068 33.2352 15.7124 32.975ZM21.6124 25.475L25.9124 20L12.7624 3.275C12.5568 3.01475 12.4631 2.68352 12.5018 2.35416C12.5405 2.0248 12.7084 1.72429 12.9686 1.51875C13.2289 1.31321 13.5601 1.21946 13.8895 1.25814C14.2188 1.29682 14.5193 1.46475 14.7249 1.725L28.4749 19.225C28.6493 19.4457 28.7441 19.7187 28.7441 20C28.7441 20.2813 28.6493 20.5543 28.4749 20.775L23.5624 27.025C23.3568 27.2852 23.0563 27.4532 22.727 27.4919C22.3976 27.5305 22.0664 27.4368 21.8061 27.2312C21.5459 27.0257 21.378 26.7252 21.3393 26.3958C21.3006 26.0665 21.3943 25.7352 21.5999 25.475H21.6124Z" fill="#5C27BB"/>
</svg>
