<svg width="20" height="20" viewBox="0 0 20 20" fill="none" xmlns="http://www.w3.org/2000/svg">
<path d="M2.32964 16.5126H6.25532C6.32202 18.323 7.80844 20 9.99996 20C12.182 20 13.6779 18.3325 13.7541 16.5126H17.6703C18.6612 16.5126 19.271 15.9695 19.271 15.1501C19.271 14.1305 18.3468 13.2635 17.4797 12.4345C16.8127 11.777 16.6603 10.4812 16.5269 9.18533C16.5174 8.65174 16.4792 8.14674 16.4221 7.66079C15.8504 7.899 15.1357 7.99428 14.5259 7.90853C14.5736 8.34683 14.6117 8.81372 14.6212 9.35684C14.7165 11.1672 15.0309 12.5584 15.6789 13.3111C16.1457 13.8447 16.6793 14.3497 16.9271 14.626V14.7404H3.0538V14.626C3.30154 14.3497 3.85418 13.8447 4.32107 13.3111C4.97852 12.5584 5.28343 11.1672 5.37872 9.35684C5.49306 5.53597 6.66504 4.24011 8.19911 3.83992C8.43731 3.77323 8.56118 3.65889 8.58024 3.40162C8.63741 2.43926 9.171 1.79133 9.99996 1.79133C10.1619 1.79133 10.3049 1.81039 10.4383 1.85803C10.6098 1.2768 10.9147 0.752739 11.3149 0.314435C10.9242 0.11434 10.4859 0 9.99996 0C8.58024 0 7.52259 0.962363 7.16052 2.22963C4.67362 3.1253 3.6255 5.52644 3.48257 9.11863C3.35871 10.4621 3.19672 11.777 2.52021 12.4345C1.65313 13.2635 0.728882 14.1305 0.728882 15.1501C0.728882 15.9695 1.3387 16.5126 2.32964 16.5126ZM14.7641 6.66984C16.5555 6.66984 18.0514 5.18342 18.0514 3.38256C18.0514 1.58171 16.5555 0.0952835 14.7641 0.0952835C12.9633 0.0952835 11.4769 1.58171 11.4769 3.38256C11.4769 5.18342 12.9633 6.66984 14.7641 6.66984ZM9.99996 18.4659C8.92326 18.4659 8.15146 17.6941 8.08477 16.5126H11.9247C11.8675 17.6846 11.0862 18.4659 9.99996 18.4659Z" fill="#5C27BB"/>
</svg>
