<svg width="24" height="25" viewBox="0 0 24 25" fill="none" xmlns="http://www.w3.org/2000/svg">
<path d="M23 4.5V10.5H17" stroke="#5C27BB" stroke-width="2" stroke-linecap="round" stroke-linejoin="round"/>
<path d="M1 20.5V14.5H7" stroke="#5C27BB" stroke-width="2" stroke-linecap="round" stroke-linejoin="round"/>
<path d="M3.51 9.49995C4.01717 8.06674 4.87913 6.78536 6.01547 5.77537C7.1518 4.76539 8.52547 4.05972 10.0083 3.72421C11.4911 3.3887 13.0348 3.43429 14.4952 3.85673C15.9556 4.27916 17.2853 5.06467 18.36 6.13995L23 10.5M1 14.5L5.64 18.86C6.71475 19.9352 8.04437 20.7207 9.50481 21.1432C10.9652 21.5656 12.5089 21.6112 13.9917 21.2757C15.4745 20.9402 16.8482 20.2345 17.9845 19.2245C19.1209 18.2145 19.9828 16.9332 20.49 15.5" stroke="#5C27BB" stroke-width="2" stroke-linecap="round" stroke-linejoin="round"/>
</svg>
