<svg width="24" height="22" viewBox="0 0 24 22" fill="none" xmlns="http://www.w3.org/2000/svg">
<path d="M0 10.4052C0 10.9165 0.383449 11.3491 1.0127 11.3491C1.31749 11.3491 1.58296 11.1918 1.81893 10.9853L2.94961 10.0414V19.195C2.94961 20.6502 3.82466 21.5056 5.31913 21.5056H18.6219C20.1163 21.5056 20.9914 20.6502 20.9914 19.195V9.98242L22.1909 10.9853C22.4269 11.1918 22.6923 11.3491 22.9971 11.3491C23.5674 11.3491 24 10.9951 24 10.4347C24 10.1004 23.8722 9.83494 23.6166 9.62847L20.9914 7.41626V3.23765C20.9914 2.7952 20.7063 2.51007 20.2638 2.51007H18.9365C18.5039 2.51007 18.2089 2.7952 18.2089 3.23765V5.07624L13.3912 1.02544C12.5457 0.31753 11.4838 0.31753 10.6284 1.02544L0.383449 9.62847C0.127816 9.84477 0 10.1299 0 10.4052ZM14.8267 13.1287C14.8267 12.6666 14.5317 12.3716 14.0696 12.3716H9.93036C9.47808 12.3716 9.16346 12.6666 9.16346 13.1287V19.5785H5.8304C5.21098 19.5785 4.87669 19.2344 4.87669 18.615V8.41913L11.592 2.7952C11.8574 2.55923 12.1622 2.55923 12.4277 2.7952L19.0643 8.36014V18.615C19.0643 19.2344 18.73 19.5785 18.1106 19.5785H14.8267V13.1287Z" fill="#121139"/>
</svg>
