<svg width="32" height="40" viewBox="0 0 32 40" fill="none" xmlns="http://www.w3.org/2000/svg">
<path d="M31.5219 33.8162L31.2378 32.1724C30.9938 30.7574 30.0094 29.5273 28.6046 28.8824L22.6245 26.1348C21.8902 25.7981 21.6803 24.7336 21.6591 24.676C21.5944 24.5802 21.4848 24.5226 21.3164 24.5226C21.3114 24.5226 21.3063 24.5226 21.3013 24.5226C21.158 24.5408 21.0406 24.6378 21.0019 24.7706L20.3118 27.1927L16.0001 35.0172L11.6991 27.2187L10.9975 24.7706C10.9602 24.6385 10.8425 24.5408 10.6456 24.5189C10.5215 24.5189 10.4075 24.5777 10.3215 24.7227C10.3195 24.7337 10.1118 25.797 9.37555 26.1348L3.39446 28.8824C1.99024 29.5278 1.0061 30.7573 0.761959 32.1724L0.477896 33.8162C0.366334 34.4603 0.525084 35.3605 1.13727 35.8154C1.2093 35.8694 1.29969 35.9495 1.41415 36.0513C2.51493 37.0279 5.86469 40 16.0001 40C26.1335 40 29.4841 37.0279 30.5852 36.0513C30.6999 35.9501 30.7906 35.8694 30.8627 35.8154C31.4752 35.3599 31.6338 34.4597 31.5219 33.8162Z" fill="#5C27BB"/>
<path d="M18.8498 9.79169C20.299 12.5115 22.2837 16.2376 23.1499 16.7786L23.3143 16.8811L23.9168 12.1766C24.082 10.1101 23.4176 8.15396 22.0463 6.66849C20.5474 5.04474 18.3436 4.11365 16 4.11365C13.6563 4.11365 11.4523 5.04474 9.95344 6.66849C8.58203 8.15334 7.9175 10.1101 8.08297 12.1815L8.6311 16.8386L8.81445 16.6385C9.19266 16.2266 9.87414 15.7966 10.7368 15.2519C12.732 13.9927 15.7307 12.1003 18.086 8.36693C18.3041 8.76724 18.5639 9.2549 18.8498 9.79169Z" fill="#5C27BB"/>
<path d="M3.97724 18.9598C4.07826 19.3801 4.45036 19.6737 4.88208 19.6737C4.95505 19.6737 5.0281 19.6645 5.09966 19.6476L6.6681 19.2709C6.96732 19.1993 7.2095 18.9827 7.31818 18.6946L7.38279 18.6988L7.35341 18.5812C7.38872 18.4332 7.38966 18.2882 7.3563 18.1487L6.53865 14.7647C6.34255 13.5849 6.2431 12.5763 6.2431 11.7652C6.2431 6.38508 10.6201 2.0082 16.0001 2.0082C21.38 2.0082 25.7569 6.38508 25.7569 11.7652C25.7569 12.5756 25.6575 13.5849 25.4471 14.8023L24.6437 18.1487C24.6319 18.1984 24.6247 18.2487 24.6218 18.3016L24.5898 18.3731C24.5792 18.3968 23.4979 20.7351 20.139 21.3944C19.9647 21.0723 19.6283 20.8691 19.2565 20.8691H17.2328C16.6792 20.8691 16.2288 21.3198 16.2288 21.8735V22.6651C16.2288 23.2188 16.6792 23.6695 17.2328 23.6695H19.2565C19.6775 23.6695 20.0533 23.4014 20.1965 23.0078C22.2069 22.6633 23.5514 21.8172 24.3283 21.1633C25.1332 20.4864 25.6143 19.793 25.8504 19.3958L26.9005 19.6475C26.9719 19.6645 27.0451 19.6736 27.118 19.6736C27.5497 19.6736 27.9217 19.38 28.0227 18.9597L28.8261 15.6133C28.9458 15.1141 28.6372 14.6106 28.1382 14.4905L27.5582 14.3516C27.6958 13.3727 27.7657 12.5029 27.7657 11.7652C27.7655 5.27828 22.4876 0 16.0001 0C9.51271 0 4.23474 5.27828 4.23474 11.7654C4.23474 12.503 4.30451 13.3727 4.44216 14.3512L3.86169 14.4907C3.36263 14.6108 3.05419 15.1142 3.17404 15.6134L3.97724 18.9598Z" fill="#5C27BB"/>
</svg>
