<svg width="33" height="32" viewBox="0 0 33 32" fill="none" xmlns="http://www.w3.org/2000/svg">
<path d="M1.66675 31V28.5C1.66675 23.4373 5.7708 19.3333 10.8334 19.3333H15.8334C20.8961 19.3333 25.0001 23.4373 25.0001 28.5V31M6.66675 31V26M20.0001 31V26M22.5001 6L23.0612 5.15822C23.6616 4.25768 24.8952 4.04637 25.7611 4.69575C26.6789 5.38412 26.7742 6.72582 25.9631 7.53707L24.7561 8.74408C24.3787 9.12137 24.1667 9.6331 24.1667 10.1667M24.1667 12.6667V13M18.0469 4.16335C19.4059 2.24908 21.6404 1 24.1667 1C28.3089 1 31.6667 4.35787 31.6667 8.5C31.6667 12.6421 28.3089 16 24.1667 16C22.0916 16 20.2132 15.1572 18.8552 13.7952M20.0001 9.33335C20.0001 5.65143 17.0152 2.66667 13.3334 2.66667C9.65151 2.66667 6.66675 5.65143 6.66675 9.33335C6.66675 13.0153 9.65151 16 13.3334 16C14.7187 16 16.0054 15.5775 17.0716 14.8542C18.8389 13.6552 20.0001 11.6299 20.0001 9.33335Z" stroke="#5C27BB" stroke-width="2" stroke-linecap="round" stroke-linejoin="round"/>
</svg>
