<svg width="24" height="24" viewBox="0 0 24 24" fill="none" xmlns="http://www.w3.org/2000/svg">
<path d="M20 9.00003H11C9.89543 9.00003 9 9.89546 9 11V20C9 21.1046 9.89543 22 11 22H20C21.1046 22 22 21.1046 22 20V11C22 9.89546 21.1046 9.00003 20 9.00003Z" stroke="#5C27BB" stroke-width="2" stroke-linecap="round" stroke-linejoin="round"/>
<path d="M5 15H4C3.46957 15 2.96086 14.7893 2.58579 14.4142C2.21071 14.0392 2 13.5305 2 13V4.00003C2 3.4696 2.21071 2.96089 2.58579 2.58582C2.96086 2.21074 3.46957 2.00003 4 2.00003H13C13.5304 2.00003 14.0391 2.21074 14.4142 2.58582C14.7893 2.96089 15 3.4696 15 4.00003V5.00003" stroke="#5C27BB" stroke-width="2" stroke-linecap="round" stroke-linejoin="round"/>
</svg>
