<svg width="17" height="38" viewBox="0 0 17 38" fill="none" xmlns="http://www.w3.org/2000/svg">
<path d="M1.27489 37.65C1.12341 37.5867 0.983893 37.4979 0.862392 37.3875C0.745232 37.2713 0.652237 37.1331 0.588776 36.9808C0.525314 36.8284 0.492643 36.665 0.492643 36.5C0.492643 36.335 0.525314 36.1716 0.588776 36.0193C0.652237 35.867 0.745232 35.7287 0.862392 35.6125C0.983893 35.5021 1.12341 35.4133 1.27489 35.35C1.42309 35.2796 1.58588 35.2453 1.74989 35.25C2.08141 35.25 2.39935 35.3817 2.63378 35.6161C2.8682 35.8506 2.99989 36.1685 2.99989 36.5C2.99989 36.8316 2.8682 37.1495 2.63378 37.3839C2.39935 37.6183 2.08141 37.75 1.74989 37.75C1.58654 37.7481 1.42517 37.7141 1.27489 37.65ZM3.71239 31.975L6.66239 28.225C6.86793 27.9648 7.16844 27.7969 7.4978 27.7582C7.82716 27.7195 8.1584 27.8132 8.41864 28.0188C8.67889 28.2243 8.84682 28.5248 8.8855 28.8542C8.92418 29.1835 8.83043 29.5148 8.62489 29.775L5.67489 33.525C5.46935 33.7853 5.16884 33.9532 4.83948 33.9919C4.51012 34.0306 4.17889 33.9368 3.91864 33.7313C3.6584 33.5257 3.49046 33.2252 3.45179 32.8959C3.41311 32.5665 3.50685 32.2353 3.71239 31.975ZM9.61239 24.475L13.9124 19L0.76239 2.27503C0.556847 2.01479 0.463104 1.68355 0.501783 1.35419C0.540462 1.02483 0.708397 0.724322 0.968641 0.518779C1.22888 0.313236 1.56012 0.219493 1.88948 0.258173C2.21884 0.296852 2.51935 0.464785 2.72489 0.725029L16.4749 18.225C16.6493 18.4457 16.7441 18.7188 16.7441 19C16.7441 19.2813 16.6493 19.5543 16.4749 19.775L11.5624 26.025C11.3568 26.2853 11.0563 26.4532 10.727 26.4919C10.3976 26.5306 10.0664 26.4368 9.80614 26.2313C9.5459 26.0257 9.37796 25.7252 9.33929 25.3959C9.30061 25.0665 9.39435 24.7353 9.59989 24.475H9.61239Z" fill="#5C27BB"/>
</svg>
