<svg width="33" height="30" viewBox="0 0 33 30" fill="none" xmlns="http://www.w3.org/2000/svg">
<path d="M16.1672 15H6.0312M5.7439 16.3287L4.0693 21.331C3.15213 24.0707 2.69355 25.4405 3.02265 26.284C3.30843 27.0167 3.92225 27.572 4.67967 27.7835C5.55185 28.0269 6.86918 27.434 9.50385 26.2485L26.3945 18.6477C28.9662 17.4904 30.252 16.9119 30.6493 16.108C30.9947 15.4097 30.9947 14.5902 30.6493 13.8919C30.252 13.0882 28.9662 12.5095 26.3945 11.3523L9.47472 3.73842C6.84798 2.55641 5.53463 1.96539 4.66332 2.20784C3.90662 2.41839 3.29287 2.97231 3.00608 3.70352C2.67585 4.54551 3.12953 5.91239 4.03692 8.64616L5.74715 13.7989C5.90298 14.2684 5.98092 14.5032 6.01167 14.7432C6.03897 14.9564 6.03868 15.172 6.01085 15.385C5.97947 15.625 5.90095 15.8595 5.7439 16.3287Z" stroke="white" stroke-width="4" stroke-linecap="round" stroke-linejoin="round"/>
</svg>
