<svg width="24" height="24" viewBox="0 0 24 24" fill="none" xmlns="http://www.w3.org/2000/svg">
<path d="M4.32977 18.5126H8.25545C8.32214 20.323 9.80857 22 12.0001 22C14.1821 22 15.678 20.3325 15.7543 18.5126H19.6704C20.6614 18.5126 21.2712 17.9695 21.2712 17.1501C21.2712 16.1305 20.3469 15.2635 19.4798 14.4345C18.8129 13.777 18.6604 12.4812 18.527 11.1853C18.5175 10.6517 18.4794 10.1467 18.4222 9.66079C17.8505 9.899 17.1359 9.99428 16.5261 9.90853C16.5737 10.3468 16.6118 10.8137 16.6213 11.3568C16.7166 13.1672 17.0311 14.5584 17.679 15.3111C18.1459 15.8447 18.6795 16.3497 18.9272 16.626V16.7404H5.05392V16.626C5.30166 16.3497 5.8543 15.8447 6.32119 15.3111C6.97865 14.5584 7.28355 13.1672 7.37884 11.3568C7.49318 7.53597 8.66516 6.24011 10.1992 5.83992C10.4374 5.77323 10.5613 5.65889 10.5804 5.40162C10.6375 4.43926 11.1711 3.79133 12.0001 3.79133C12.1621 3.79133 12.305 3.81039 12.4384 3.85803C12.6099 3.2768 12.9148 2.75274 13.315 2.31444C12.9243 2.11434 12.486 2 12.0001 2C10.5804 2 9.52272 2.96236 9.16064 4.22963C6.67374 5.1253 5.62562 7.52644 5.4827 11.1186C5.35883 12.4621 5.19685 13.777 4.52033 14.4345C3.65325 15.2635 2.729 16.1305 2.729 17.1501C2.729 17.9695 3.33882 18.5126 4.32977 18.5126ZM16.7643 8.66984C18.5556 8.66984 20.0515 7.18342 20.0515 5.38256C20.0515 3.58171 18.5556 2.09528 16.7643 2.09528C14.9634 2.09528 13.477 3.58171 13.477 5.38256C13.477 7.18342 14.9634 8.66984 16.7643 8.66984ZM12.0001 20.4659C10.9234 20.4659 10.1516 19.6941 10.0849 18.5126H13.9248C13.8676 19.6846 13.0863 20.4659 12.0001 20.4659Z" fill="white"/>
</svg>
