<svg width="24" height="24" viewBox="0 0 24 24" fill="none" xmlns="http://www.w3.org/2000/svg">
<path d="M18 8.00003C19.6569 8.00003 21 6.65688 21 5.00003C21 3.34318 19.6569 2.00003 18 2.00003C16.3431 2.00003 15 3.34318 15 5.00003C15 6.65688 16.3431 8.00003 18 8.00003Z" stroke="#5C27BB" stroke-width="2" stroke-linecap="round" stroke-linejoin="round"/>
<path d="M6 15C7.65685 15 9 13.6569 9 12C9 10.3432 7.65685 9.00003 6 9.00003C4.34315 9.00003 3 10.3432 3 12C3 13.6569 4.34315 15 6 15Z" stroke="#5C27BB" stroke-width="2" stroke-linecap="round" stroke-linejoin="round"/>
<path d="M18 22C19.6569 22 21 20.6569 21 19C21 17.3432 19.6569 16 18 16C16.3431 16 15 17.3432 15 19C15 20.6569 16.3431 22 18 22Z" stroke="#5C27BB" stroke-width="2" stroke-linecap="round" stroke-linejoin="round"/>
<path d="M8.59009 13.51L15.4201 17.49" stroke="#5C27BB" stroke-width="2" stroke-linecap="round" stroke-linejoin="round"/>
<path d="M15.4101 6.51003L8.59009 10.49" stroke="#5C27BB" stroke-width="2" stroke-linecap="round" stroke-linejoin="round"/>
</svg>
