<svg width="34" height="34" viewBox="0 0 34 34" fill="none" xmlns="http://www.w3.org/2000/svg">
<path fill-rule="evenodd" clip-rule="evenodd" d="M16.9999 0.333374C7.79513 0.333374 0.333252 7.79525 0.333252 17C0.333252 19.7334 0.99221 22.3161 2.16054 24.5948L0.36721 32.1271C0.317862 32.3348 0.322497 32.5516 0.380676 32.757C0.438854 32.9624 0.548638 33.1494 0.699573 33.3004C0.850509 33.4513 1.03757 33.5611 1.24294 33.6193C1.44832 33.6775 1.66516 33.6821 1.87284 33.6327L9.40513 31.8394C11.6839 33.0077 14.2666 33.6667 16.9999 33.6667C26.2047 33.6667 33.6666 26.2048 33.6666 17C33.6666 7.79525 26.2047 0.333374 16.9999 0.333374ZM2.83325 17C2.83325 9.17608 9.17596 2.83337 16.9999 2.83337C24.8239 2.83337 31.1666 9.17608 31.1666 17C31.1666 24.824 24.8239 31.1667 16.9999 31.1667C14.5241 31.1667 12.1999 30.5327 10.1776 29.419C9.90548 29.2692 9.58734 29.2261 9.28513 29.298L3.26971 30.7302L4.702 24.7148C4.77394 24.4126 4.73079 24.0945 4.58096 23.8223C3.46721 21.7998 2.83325 19.4759 2.83325 17ZM12.4214 21.5786C14.9162 24.0732 18.2426 25.7467 21.9533 26.145C24.4066 26.4082 26.1666 24.3869 26.1666 22.2873V20.8298C26.1666 19.9805 25.8928 19.1538 25.3858 18.4724C24.8789 17.791 24.1657 17.2912 23.3522 17.0471L23.2362 17.0123L23.1174 16.989L21.4462 16.6598C20.9087 16.5207 20.348 16.4965 19.8006 16.5886C19.2532 16.6808 18.7313 16.8874 18.2691 17.1948C17.7251 16.7663 17.2337 16.2749 16.8051 15.7309C17.1127 15.2686 17.3193 14.7467 17.4115 14.1992C17.5037 13.6517 17.4795 13.0909 17.3403 12.5534L17.0108 10.8823L16.9874 10.7636L16.9526 10.6475C16.7086 9.83413 16.2088 9.12106 15.5275 8.61412C14.8462 8.10719 14.0196 7.8334 13.1703 7.83337H11.7124C9.61304 7.83337 7.59159 9.59296 7.85471 12.0465C8.25304 15.7569 9.92638 19.0838 12.4214 21.5786ZM19.4322 19.458C19.6172 19.273 19.8489 19.1416 20.1025 19.0776C20.3562 19.0137 20.6225 19.0196 20.873 19.0948L22.6341 19.4417C22.9325 19.5313 23.1942 19.7148 23.3802 19.9648C23.5661 20.2149 23.6666 20.5182 23.6666 20.8298V22.2873C23.6666 23.0875 23.0158 23.7446 22.2201 23.6592C20.2322 23.4468 18.3177 22.7894 16.6187 21.7359C15.7374 21.1899 14.9222 20.5438 14.1893 19.8107C13.4561 19.0777 12.8101 18.2625 12.2641 17.3813C11.2106 15.6821 10.5532 13.7676 10.3408 11.7796C10.2553 10.984 10.9124 10.3334 11.7124 10.3334H13.1701C13.4817 10.3335 13.7849 10.434 14.0349 10.62C14.2848 10.806 14.4681 11.0676 14.5576 11.3661L14.9049 13.1267C14.9801 13.3773 14.9861 13.6436 14.9221 13.8973C14.8582 14.151 14.7268 14.3827 14.5418 14.5677L14.3085 14.8011C14.154 14.9548 14.043 15.1467 13.9866 15.3571C13.9091 15.6494 13.9441 15.9657 14.1122 16.2369C14.5698 16.9758 15.1112 17.6593 15.7258 18.2738C16.3403 18.8885 17.0239 19.43 17.7628 19.8875C18.0341 20.0555 18.3501 20.0907 18.6426 20.0132C18.8531 19.9567 19.0449 19.8457 19.1987 19.6913L19.4322 19.458Z" fill="white"/>
</svg>
